<svg width="91" height="30" viewBox="0 0 91 30" fill="none" xmlns="http://www.w3.org/2000/svg"><path fill="#043F2E" d="M21.0912 9.36552L21.1001 20.4568C21.0912 21.0025 20.6334 21.3196 20.072 21.3196H17.6989C17.1314 21.3196 16.6708 21.7673 16.6708 22.319V27.9806C16.6708 28.5316 17.13 28.9793 17.6969 28.98L28.9698 28.998C29.538 28.9987 30 28.5509 30 27.9986V22.4556C30 21.9039 29.5394 21.4562 28.9718 21.4562H27.4289C26.8613 21.4562 26.4007 21.0085 26.4007 20.4568V13.2493C26.4007 12.697 26.8613 12.25 27.4296 12.25H28.9711C29.5394 12.2506 30 11.8036 30 11.2513V0.99938C30 0.44772 29.5401 0 28.9718 0H22.5787C22.1927 0 21.8391 0.21054 21.6629 0.545L15.9915 11.3363L10.3893 0.54899C10.2145 0.21254 9.85948 0 9.47152 0H1.02817C0.46062 0 0 0.44772 0 0.99938V5.31337C0 5.86503 0.46062 6.31275 1.02817 6.31275H2.53821C3.10576 6.31275 3.56639 6.76047 3.56639 7.31213V14.8312C3.56639 15.3829 3.10576 15.8306 2.53821 15.8306H1.02817C0.46062 15.8306 0 16.2783 0 16.83V28.0006C0 28.5523 0.46062 29 1.02817 29H9.769C10.3366 29 10.7972 28.5523 10.7972 28.0006V22.4556C10.7972 21.9039 10.3366 21.4562 9.769 21.4562H8.26924C7.70169 21.4562 7.24107 21.0085 7.24107 20.4568V10.4022L13.2264 21.9244C13.4786 22.4101 14.1922 22.4128 14.4479 21.9284L21.0912 9.36552Z"></path><path d="M48.834 10.7971C48.3054 9.17148 47.029 7.89635 45.4017 7.36827C44.5965 7.10657 43.6014 7.10657 41.6114 7.10657H38.6369C36.6468 7.10657 35.6518 7.10657 34.8465 7.36827C33.2193 7.89635 31.9429 9.17148 31.4143 10.7971C31.1523 11.6016 31.1523 12.5956 31.1523 14.5838V21.6484C31.1523 23.6366 31.1523 24.6306 31.4143 25.4351C31.9429 27.0607 33.2193 28.3358 34.8465 28.8639C35.6518 29.125 36.6468 29.125 38.6369 29.125H41.6114C43.6014 29.125 44.5965 29.125 45.4017 28.8639C47.029 28.3358 48.3054 27.0607 48.834 25.4351C49.0952 24.6306 49.0952 23.6366 49.0952 21.6484V14.5838C49.0952 12.5956 49.0952 11.6016 48.834 10.7971ZM45.1351 18.4619C45.1351 19.3071 45.1351 19.7297 45.0242 20.0715C44.7996 20.7625 44.257 21.3046 43.5654 21.5289C43.2232 21.6397 42.8002 21.6397 41.9542 21.6397H38.2921C37.4461 21.6397 37.023 21.6397 36.6809 21.5289C35.9892 21.3046 35.4466 20.7625 35.2221 20.0715C35.1111 19.7297 35.1111 19.3071 35.1111 18.4619V17.8077C35.1111 16.9625 35.1111 16.5405 35.2221 16.1981C35.4466 15.5071 35.9892 14.965 36.6809 14.7407C37.023 14.6298 37.4461 14.6298 38.2921 14.6298H41.9542C42.8002 14.6298 43.2225 14.6298 43.5654 14.7407C44.257 14.965 44.7996 15.5071 45.0242 16.1981C45.1351 16.5399 45.1351 16.9625 45.1351 17.8077V18.4619Z" fill="#043F2E"></path><path d="M69.5279 0.553447C69.4483 0.30977 69.2572 0.118167 69.0133 0.0393889C68.8923 0 68.7433 0 68.4446 0H65.3111C65.0124 0 64.8634 0 64.7424 0.0393889C64.4985 0.118834 64.3067 0.30977 64.2272 0.553447C64.1878 0.674284 64.1878 0.823161 64.1878 1.12158V5.68335C64.1878 6.05587 64.1878 6.24281 64.139 6.39368C64.0401 6.69878 63.8008 6.93779 63.4954 7.03659C63.3444 7.08533 63.158 7.08533 62.7844 7.08533H59.1076C57.1175 7.08533 56.1225 7.08533 55.3172 7.34636C53.69 7.87444 52.4136 9.14957 51.885 10.7752C51.623 11.5797 51.623 12.5737 51.623 14.5619V21.6265C51.623 23.6146 51.623 24.6087 51.885 25.4132C52.4136 27.0395 53.69 28.3139 55.3172 28.842C56.1225 29.1037 57.1175 29.1037 59.1076 29.1037H62.0821C64.0721 29.1037 65.0672 29.1037 65.8725 28.842C67.4997 28.3139 68.7761 27.0388 69.3047 25.4132C69.5666 24.6087 69.5666 23.6146 69.5666 21.6265V1.12158C69.5666 0.823161 69.5666 0.674284 69.5272 0.553447H69.5279ZM65.1033 18.4407C65.1033 19.2859 65.1033 19.7078 64.9923 20.0503C64.7678 20.7413 64.2252 21.2834 63.5335 21.5077C63.1914 21.6185 62.7684 21.6185 61.9223 21.6185H58.7641C57.9181 21.6185 57.4958 21.6185 57.1529 21.5077C56.4613 21.2834 55.9187 20.7413 55.6941 20.0503C55.5832 19.7085 55.5832 19.2859 55.5832 18.4407V17.7864C55.5832 16.9412 55.5832 16.5193 55.6941 16.1768C55.9187 15.4858 56.4613 14.9437 57.1529 14.7194C57.4951 14.6086 57.9181 14.6086 58.7641 14.6086H61.9223C62.7684 14.6086 63.1914 14.6086 63.5335 14.7194C64.2252 14.9437 64.7678 15.4858 64.9923 16.1768C65.1033 16.5186 65.1033 16.9412 65.1033 17.7864V18.4407Z" fill="#043F2E"></path><path d="M79.4637 24.0342C78.6177 24.0342 78.1946 24.0342 77.8525 23.9234C77.1608 23.699 76.6182 23.1569 76.3937 22.466C76.3228 22.2483 76.2974 21.9966 76.2881 21.6248H89.064C89.5805 21.6248 89.9995 21.2062 89.9995 20.6901V14.6022C89.9995 12.6141 89.9995 11.62 89.7382 10.8155C89.2097 9.18991 87.9333 7.91478 86.306 7.3867C85.5008 7.125 84.5057 7.125 82.5156 7.125H79.5412C77.5511 7.125 76.5561 7.125 75.7508 7.3867C74.1229 7.91478 72.8472 9.18991 72.3186 10.8155C72.0566 11.62 72.0566 12.6141 72.0566 14.6022V21.6668C72.0566 23.655 72.0566 24.6491 72.3186 25.4535C72.8472 27.0791 74.1236 28.3543 75.7508 28.8824C76.5561 29.1434 77.5511 29.1434 79.5412 29.1434H84.8846C87.3846 29.1434 89.4656 27.3515 89.912 24.9835C90.0049 24.4902 89.6267 24.0329 89.1234 24.0329H79.4644L79.4637 24.0342ZM76.3937 16.1758C76.6182 15.4848 77.1608 14.9427 77.8525 14.7184C78.1946 14.6076 78.6177 14.6076 79.4637 14.6076H82.5912C83.4372 14.6076 83.8595 14.6076 84.2023 14.7184C84.894 14.9427 85.4366 15.4848 85.6612 16.1758C85.7721 16.5176 85.7721 16.9402 85.7721 17.7854V18.1539H76.2827V17.7854C76.2827 16.9402 76.2827 16.5176 76.3937 16.1758V16.1758Z" fill="#043F2E"></path></svg>