<svg viewBox="0 0 204 49" xmlns="http://www.w3.org/2000/svg"><g fill="#1a1918"><path d="m22.9 40.3c-1.7 3.6-8.2 8.3-13.1 4.8-5.7-4.2-4.4-15.1-3.4-19.8-1.5 0-3.4-.2-5-.3-.7 0-1.3-.5-1.3-1.3 0-1 .5-1.5 1.1-1.5h5.9c4-17.5 10.1-17.5 12.3-13.9 2.5 3.9 1.3 8.4-2.4 14h6s1.6 1.1 1.6 1.9-.3 1.8-1.6 1.8l-8.4-.5c-.8 1.1-2.1 2.5-3.2 4.3-1.4 2.2-1.3 8.5.7 10.9 2.3 2.7 9.5 0 10.5-5.5l.4 4.9zm-6.2-28.7c-1.2-1.8-3.2 1.7-5.2 10.7h1.5c1.6-2.6 5.2-8.4 3.7-10.7z"/><path d="m31 46.3c-3.8 0-6.9-2.2-8.1-5.7-1.2-3.8-.4-8.1 1.8-11.4 2.2-3.4 7.8-6.1 11.3-2.6 5.2 5.1-2.5 11.7-7.6 13.1 2.5 5.8 11.1.4 13.1-4.8l.2 5c-2.6 2.9-5.2 6.5-10.7 6.5zm-3-10.5c3.1 0 7.8-5.3 5-6.7s-5 4-5 6.7z"/><path d="m50.4 25c2.2.5.6 3.8-.9 6 .5 2.5 3 5.7 3.2 10.2 3.3-.3 7.3-2.1 8.5-5.8l.7 4.1c-2.8 4.4-9.7 6.7-16.9 6.7s-5-2.6-5.6-4c.5-3.1.8-4.2 2.1-7.5 2.1-4.7 5.8-10.5 8.9-9.8zm-5.6 18.1c4 .3 3.8-3.9 1.3-7.8-.9 1.4-3.9 4.4-4.7 5.3.5-.1 1.9 2.4 3.4 2.5z"/><path d="m77.8 40.3c-1.7 3.6-8.2 8.3-13.1 4.8-5.7-4.2-4.4-15.1-3.4-19.8-1.5 0-3.4-.2-5-.3-.7 0-1.3-.5-1.3-1.3 0-1 .5-1.5 1.1-1.5h5.9c4.1-17.4 10.1-17.5 12.4-13.9 2.5 3.9 1.3 8.4-2.4 14h6s1.6 1.1 1.6 1.9-.3 1.8-1.6 1.8l-8.4-.5c-.8 1.1-2.1 2.5-3.2 4.3-1.4 2.2-1.3 8.5.7 10.9 2.3 2.7 9.5 0 10.5-5.5l.4 4.9zm-6.2-28.7c-1.2-1.8-3.2 1.7-5.2 10.7h1.5c1.6-2.6 5.2-8.4 3.7-10.7z"/><path d="m185.9 46.3c-3.8 0-6.9-2.2-8.1-5.7-1.2-3.8-.4-8.1 1.8-11.4 2.2-3.4 7.8-6.1 11.3-2.6 5.2 5.1-2.5 11.7-7.6 13.1 2.5 5.8 11.1.4 13.1-4.8 1-2.5 3.2-.4.2 5-1 1.8-5.2 6.5-10.7 6.5zm-3.1-10.5c3.1 0 7.8-5.3 5-6.7s-5 4-5 6.7z"/><path d="m88.6 30.6c-6.6 1.1-7.9 9.6-5.8 11.7 2.4 2.3 6.5-.5 6.9-2.4-.6-2.3-1.1-6-1.1-9.3zm15.7 11.3c-.8.8-5.6 4.3-8.7 4.3s-3.9-1.7-4.8-3.5c-3.2 4.1-8.6 5.1-12.4.6-4.1-4.9.5-16.2 10.2-17.1.5-15.6 8.1-25 13.1-22 5.3 3.2.8 14.8-4 23.9-1.7 3.4-5.1 11.4-.8 12.9 2 .7 5.8-4.5 6.5-5.6l.8 6.4zm-5.2-33c-3-1.6-4.9 11.5-4.9 20.6 4.9-10.6 6.6-19.7 4.9-20.6z"/><path d="m117.2 29.6c3.1 6.1.2 16.7-8 16.7-12.8 0-8.1-21.4 3.4-21.4s2.8.2 4.1.7c3.9 1.3 6.6 1.2 8.7-.3l1 2c-1.8 3-8.1 2.8-9.2 2.3zm-7.1 12.4c4.4 0 6.5-12.8 1.3-12.8s-7.3 12.8-1.3 12.8z"/><path d="m139.1 26.4c.2 3.1-4.3 12.5-1.4 14.8 2.5 2 7.9-3.4 9.2-4.9v3.1c-2.7 2.7-6.8 7-10.8 7s-3.4-2.5-3.5-3.4c-1.8 2.2-4.7 3.4-7.8 3.4-6.8 0-1.4-16.2-.5-19.5.5-1.9 1.9-1.9 2.4-1.9.7 0 2.8-.5 2.8 1.4s-5.9 14.9-1.4 14.9 5.6-11.9 6.3-15.1c.2-1 1.3-1.2 2.2-1.2s2.5.3 2.5 1.4z"/><path d="m155.6 41.9c3 .3 9.9-4.7 11.9-6.7l.4 2.6c-7.1 8.5-17.7 11.4-24.5 4.6-1.9-10.1 4.8-45.6 15.4-38.3 7.5 5.1-2.8 19.6-6.5 24 6.5-6.5 13 4.3 3.3 13.8zm-.9-11.9c-6.9.6-7.5 6.5-7.8 10.2 5.4 5.3 13.2-10.7 7.8-10.2zm1.1-22.2c-4.5 0-8.3 18.7-7.8 21.8 2.2-1.9 12.4-21.8 7.8-21.8z"/><path d="m168.4 45.7c-10.1-5.7-1.7-48.8 11.5-40.4 6.9 4.4-12.8 33.8-8.6 36.9 1.9 1.4 7.2-3.1 8.3-6.7l.3 4.7c-.6 1.3-6.4 8.3-11.5 5.5zm.4-15.1c2.1-3.3 11-21.7 8.3-22.8-3.3-1.3-10.7 15.7-8.3 22.8z"/></g><text font-family="AppleSymbols, 'Apple Symbols'" font-size="8.1" transform="translate(198.1 24.7)"><tspan x="0" y="0">®</tspan></text></svg>