<svg width="482" height="55" viewBox="0 0 482 55" fill="none" xmlns="http://www.w3.org/2000/svg"><path d="M61 13.092h20.454v4.704h-7.896v25.872h-4.872V17.796H61v-4.704zm25.41 0h4.914v30.576H86.41V13.092zm12.07 30.576V12h.042l16.464 23.31-2.1-.462L129.266 12h.084v31.668h-4.872V23.046l.336 2.52-11.046 15.624h-.084l-11.298-15.624.84-2.31v20.412H98.48zm37.992-30.576h20.286v4.704h-15.372v8.148h13.692v4.746h-13.692v8.274h15.96v4.704h-20.874V13.092zm38.578 0h18.564v4.704h-13.65v8.61h11.886v4.704h-11.886v12.558h-4.914V13.092zm21.377 15.33c0-2.128.406-4.13 1.218-6.006a16.356 16.356 0 013.36-4.998 15.501 15.501 0 014.956-3.402c1.904-.84 3.934-1.26 6.09-1.26 2.128 0 4.13.42 6.006 1.26a15.376 15.376 0 014.998 3.402 15.995 15.995 0 013.402 4.998c.84 1.876 1.26 3.878 1.26 6.006 0 2.156-.42 4.172-1.26 6.048a15.995 15.995 0 01-3.402 4.998 15.709 15.709 0 01-4.998 3.36c-1.876.784-3.878 1.176-6.006 1.176-2.184 0-4.214-.392-6.09-1.176a16.208 16.208 0 01-4.956-3.318 15.84 15.84 0 01-3.36-4.956c-.812-1.904-1.218-3.948-1.218-6.132zm5.04 0c0 1.512.266 2.926.798 4.242a11.303 11.303 0 002.31 3.486c.98.98 2.114 1.75 3.402 2.31 1.288.56 2.688.84 4.2.84 1.456 0 2.814-.28 4.074-.84a10.43 10.43 0 003.36-2.31 11.069 11.069 0 002.226-3.486c.56-1.316.84-2.73.84-4.242 0-1.54-.28-2.968-.84-4.284a11.703 11.703 0 00-2.268-3.486 10.123 10.123 0 00-3.36-2.352c-1.288-.56-2.674-.84-4.158-.84-1.484 0-2.87.28-4.158.84a10.59 10.59 0 00-3.402 2.352 10.951 10.951 0 00-2.226 3.528c-.532 1.316-.798 2.73-.798 4.242zm40.13-15.33c1.68 0 3.22.224 4.62.672 1.4.42 2.59 1.05 3.57 1.89a8.432 8.432 0 012.268 3.108c.56 1.204.84 2.59.84 4.158 0 1.204-.182 2.408-.546 3.612a8.983 8.983 0 01-1.806 3.276c-.812.98-1.89 1.764-3.234 2.352-1.344.588-3.01.882-4.998.882h-4.41v10.626h-4.914V13.092h8.61zm.672 15.246c1.092 0 2.002-.168 2.73-.504.728-.364 1.288-.812 1.68-1.344a4.86 4.86 0 00.882-1.68c.196-.616.294-1.19.294-1.722 0-.504-.084-1.05-.252-1.638a5.182 5.182 0 00-.84-1.722c-.392-.56-.952-1.022-1.68-1.386-.7-.364-1.582-.546-2.646-.546h-4.536v10.542h4.368zm5.292 2.898l7.812 12.432h-5.67l-7.98-12.306 5.838-.126z" fill="#276359"/><path d="M264.394 13.63l11.004 27.93-1.134-.168 10.752-27.762h2.352l-12.684 31.206L262 13.63h2.394zm28.524 0h18.396v1.974h-16.338v11.844h14.7v1.974h-14.7v12.054h16.926v1.974h-18.984V13.63zm50.512 30.534l-23.52-26.502.546-.42.042 26.208h-2.016V13h.126l23.52 26.712-.546.168-.042-26.25h1.974v30.534h-.084zm5.933-30.534h19.53v1.974h-8.778V43.45h-2.058V15.604h-8.694V13.63zm27.265 19.74c0 1.736.35 3.234 1.05 4.494a7.8 7.8 0 002.94 2.94c1.232.672 2.632 1.008 4.2 1.008 1.596 0 3.01-.336 4.242-1.008 1.26-.7 2.24-1.68 2.94-2.94.728-1.26 1.092-2.758 1.092-4.494V13.63h2.016v19.866c0 2.156-.462 4.004-1.386 5.544a8.97 8.97 0 01-3.696 3.528c-1.54.812-3.276 1.218-5.208 1.218-1.932 0-3.682-.406-5.25-1.218-1.54-.812-2.758-1.988-3.654-3.528-.896-1.54-1.344-3.388-1.344-5.544V13.63h2.058v19.74zm33.349-19.74c1.12 0 2.226.168 3.318.504a8.537 8.537 0 013.024 1.512 7.46 7.46 0 012.226 2.604c.56 1.064.84 2.338.84 3.822 0 1.12-.168 2.212-.504 3.276a7.742 7.742 0 01-1.638 2.814c-.756.84-1.736 1.512-2.94 2.016s-2.688.756-4.452.756h-4.62V43.45h-2.058V13.63h6.804zm-.252 15.33c1.484 0 2.716-.21 3.696-.63.98-.42 1.75-.966 2.31-1.638.56-.672.952-1.4 1.176-2.184a7.922 7.922 0 00.378-2.352c0-.896-.168-1.736-.504-2.52a5.691 5.691 0 00-1.386-2.058 6.34 6.34 0 00-2.226-1.428c-.868-.364-1.834-.546-2.898-.546h-5.04V28.96h4.494zm4.284.924l8.274 13.566h-2.394l-8.316-13.524 2.436-.042zm14.482-16.254h18.396v1.974h-16.338v11.844h14.7v1.974h-14.7v12.054h16.926v1.974h-18.984V13.63zm40.474 3.36c-.868-.42-1.932-.812-3.192-1.176a13.562 13.562 0 00-3.78-.546c-1.96 0-3.528.49-4.704 1.47-1.176.98-1.764 2.212-1.764 3.696 0 1.12.336 2.058 1.008 2.814.672.728 1.554 1.358 2.646 1.89 1.092.504 2.254.994 3.486 1.47.98.364 1.946.77 2.898 1.218.98.448 1.862.994 2.646 1.638a6.797 6.797 0 011.848 2.394c.476.952.714 2.128.714 3.528 0 1.652-.392 3.122-1.176 4.41-.784 1.26-1.876 2.24-3.276 2.94-1.4.7-3.024 1.05-4.872 1.05-1.484 0-2.842-.182-4.074-.546-1.204-.364-2.268-.784-3.192-1.26a51.045 51.045 0 01-2.142-1.26l.966-1.68c.616.448 1.358.896 2.226 1.344.896.448 1.862.826 2.898 1.134 1.036.308 2.072.462 3.108.462a8.826 8.826 0 003.486-.714 6.703 6.703 0 002.814-2.142c.756-.98 1.134-2.212 1.134-3.696 0-1.428-.35-2.576-1.05-3.444-.7-.896-1.596-1.624-2.688-2.184a30.394 30.394 0 00-3.486-1.512c-.952-.364-1.904-.742-2.856-1.134-.952-.42-1.82-.91-2.604-1.47a7.095 7.095 0 01-1.89-2.1c-.448-.812-.672-1.792-.672-2.94 0-1.428.364-2.674 1.092-3.738.728-1.064 1.708-1.89 2.94-2.478 1.26-.616 2.688-.938 4.284-.966 1.4 0 2.814.182 4.242.546 1.456.364 2.716.826 3.78 1.386l-.798 1.596z" fill="#8EBBA7"/><path fill-rule="evenodd" clip-rule="evenodd" d="M19.759 6.31c2.357-.848 4.9-1.31 7.549-1.31 2.82 0 5.517.523 8.001 1.478l5.618-2.845A27.183 27.183 0 0027.307 0 27.185 27.185 0 0014.06 3.423l5.7 2.887zm-9.607-.25C3.96 11.068 0 18.726 0 27.309 0 42.39 12.226 54.616 27.308 54.616c15.082 0 27.308-12.226 27.308-27.308 0-8.444-3.833-15.993-9.853-21.002l-4.966 2.515c5.925 4.01 9.819 10.794 9.819 18.487 0 12.32-9.988 22.308-22.308 22.308S5 39.628 5 27.308c0-7.84 4.043-14.734 10.158-18.712L10.152 6.06z" fill="url(#paint0_linear_232_41)"/><path fill-rule="evenodd" clip-rule="evenodd" d="M30.305 9.15V29h-5V9.076a28.352 28.352 0 015 .074z" fill="url(#paint1_linear_232_41)"/><path fill-rule="evenodd" clip-rule="evenodd" d="M25.305 34v-5.886l13-8.114v5.886l-13 8.114z" fill="url(#paint2_linear_232_41)"/><defs><linearGradient id="paint0_linear_232_41" x1="-.35" y1="24.531" x2="48.646" y2="24.522" gradientUnits="userSpaceOnUse"><stop offset=".502" stop-color="#266157"/><stop offset=".888" stop-color="#276359"/></linearGradient><linearGradient id="paint1_linear_232_41" x1="25.273" y1="17.983" x2="29.759" y2="17.983" gradientUnits="userSpaceOnUse"><stop offset=".502" stop-color="#266157"/><stop offset=".888" stop-color="#276359"/></linearGradient><linearGradient id="paint2_linear_232_41" x1="24.771" y1="27.084" x2="35.105" y2="27.083" gradientUnits="userSpaceOnUse"><stop offset=".502" stop-color="#266157"/><stop offset=".888" stop-color="#276359"/></linearGradient></defs></svg>