<svg id="Layer_1" data-name="Layer 1" xmlns="http://www.w3.org/2000/svg" viewBox="0 0 298.87 67.84"><defs><style>.cls-1{fill:#fff;}.cls-2{fill:#dda050;}.cls-3{fill:#21262c;}</style></defs><path class="cls-1" d="M83.34,49.33c5.6,0,12.77-.1,12.77-.1l0,4.17s-4.31,0-6,0-11,0-11,0,.18-22.49.17-22.15,2.76.09,4.17.12C83.52,37.29,83.26,43.28,83.34,49.33Zm25.69,4h-4s-2.4-5.13-3.77-7.63H92.42l-.69,1.19-4.09,0,7.53-15.4s2.54-.11,3.89-.12C102.34,38.64,109,53.37,109,53.37ZM99.49,41.84c-.69-2-2.38-6.09-2.38-6.09l-3,6.18S97.67,41.93,99.49,41.84Z"/><path class="cls-1" d="M126.16,31.15c-.17,2.6-.38,5.28-.7,7.68a15.9,15.9,0,0,1-.75,3.22,6.65,6.65,0,0,1-3.58,3.77,7.06,7.06,0,0,1-2.88.61,7.25,7.25,0,0,1-2.3-.38,7.59,7.59,0,0,1-1.64-.81c-2.66-1.75-3.32-4.9-3.6-7.46a51.7,51.7,0,0,1-.3-6.63h4.44c-.07,2-.12,4.18-.06,5.55a11.33,11.33,0,0,0,.59,3.77A3.4,3.4,0,0,0,117,42.34a1.5,1.5,0,0,0,.38.15,3,3,0,0,0,3.44-2,9,9,0,0,0,.57-2.36l.36-4.15c.09-.94.17-1.88.25-2.82Zm-1.27,18.71a25.31,25.31,0,0,1,.07,3.56H111.8s0-2.32.12-3.55Z"/><path class="cls-1" d="M154.52,47.19c.74.93,2.25,2.88,2.25,2.88a4.15,4.15,0,0,1-.3.33A15,15,0,0,1,150.58,54a8.66,8.66,0,0,1-9.17-2.73,33.14,33.14,0,0,1-2.81-3.68,5,5,0,0,0-3.71-2.35c-.36,0-1.42,0-1.42,0s-.05,5.36-.21,7.61a34.29,34.29,0,0,1-3.89,0s0-13.81,0-19.87c0-.52,0-1.86,0-1.86s6.31-.48,8.88.78A7.76,7.76,0,0,1,142.72,38a5.18,5.18,0,0,1-1.57,4.43,12.49,12.49,0,0,1-1.34,1,20.73,20.73,0,0,1,2.71,2.91c1.26,1.76,2.68,3.68,5,4s4.14-1,5.83-2.25ZM138,35.9c-1.1-1.63-4.67-1.27-4.67-1.27l.09,7.28a11.25,11.25,0,0,0,3.77-.86A3.72,3.72,0,0,0,138,35.9Zm28.21,16.83H162.4s-2.28-5.13-3.59-7.63h-8.46s-.34.92-.82,2c-2.51,1.5-3.84-.42-3.84-.42L153,30.87s2.43-.11,3.71-.12C159.81,38,166.19,52.73,166.19,52.73Zm-9.1-11.53c-.65-2-2.27-6.09-2.27-6.09L152,41.29S155.35,41.3,157.09,41.2Z"/><path class="cls-1" d="M216.11,52.84c0,.17,0,.2-2.59.38l-2.71.17-1.38,0a20.7,20.7,0,0,1-6.29-.9,11.61,11.61,0,0,1-8.36-9.22c-.12-.67-.19-2.47-.21-3.29l-4.34,6.46-3.73,0L182,40l-.36,13.18h-4.4v-.13c.06-6.1.4-21.16.4-21.31v-.12h.13s2.67-.09,3.84-.08h.07l0,.05,6.57,10.23,6.44-10.31h3.6v.13s.11,5.16.23,7.11l0,.36a19.4,19.4,0,0,0,.38,3.3,8.89,8.89,0,0,0,5.79,6,20.77,20.77,0,0,0,7.79.77c.59,0,1.18,0,1.76,0l1.42-.06h.13Zm-14.1-14a7.56,7.56,0,0,1,5.35-6.79,8.15,8.15,0,0,1,8.73,2c3.46,3.81,2,9.74-2.92,11.84a7.69,7.69,0,0,1-3.36.7C205.22,46.62,201.66,43.11,202,38.86Zm4,.17a3.91,3.91,0,0,0,4.17,3.9,3.59,3.59,0,0,0,3.61-3.67,3.8,3.8,0,0,0-3.8-3.88A3.93,3.93,0,0,0,206,39Z"/><path class="cls-1" d="M221,48.78l2.46-1.72c.19-.13.52-.3.52-.3s1.35,2.77,2.92,2.92a2.73,2.73,0,0,0,2.46-.73c.56-.7.09-1.59-.59-2.19a8.29,8.29,0,0,0-1.8-1.14,24,24,0,0,1-3.48-2,7.19,7.19,0,0,1-3.2-5.92,6.88,6.88,0,0,1,5-6.71c4.71-1.1,10,1.29,11.13,7.6a4.88,4.88,0,0,1,.06.54c-1.08.19-3.42.3-3.42.3a14,14,0,0,0-1.6-2.88,5.42,5.42,0,0,0-3.74-1.82A2.66,2.66,0,0,0,224.83,36c-1.1,2.08.24,4,2,4.84a31.66,31.66,0,0,1,4.84,2.8,6,6,0,0,1,2.53,4.94,4.35,4.35,0,0,1-2.17,4,7.77,7.77,0,0,1-8.16.19A6.19,6.19,0,0,1,222.09,51,10.17,10.17,0,0,1,221,48.78Z"/><path class="cls-1" d="M269.37,49.53c.12,1,.39,3.72.39,3.72s-3.33.45-3.82.5a15.24,15.24,0,0,1-5.9-.39,9.68,9.68,0,0,1-7.41-8.11h-9.3l.06,8-4,.07-.09-22.18,3.91-.08.07,9.86h9.19c-.07-4.06-.14-9.63-.14-9.63l4.32-.08s0,1.71,0,2.83c0,3.71-.21,10.14.77,12.25a6.7,6.7,0,0,0,5.62,3.63A53.76,53.76,0,0,0,269.37,49.53Zm-4.53-10.05h-1.7s.06.46.07.49a3.67,3.67,0,0,0,.42,1.08,2.92,2.92,0,0,0,1.71,1.24,7.77,7.77,0,0,0,2.34.36,18.8,18.8,0,0,0,2.37-.35l.71-.16s.72,2.09,1.09,3.08a9,9,0,0,1-4.18,1,10,10,0,0,1-3.74-.61,6.44,6.44,0,0,1-4.49-5.38,8.32,8.32,0,0,1,.64-4.84A6.92,6.92,0,0,1,264,31.75a7.47,7.47,0,0,1,5.27.06,5.81,5.81,0,0,1,3.45,3.36,13.6,13.6,0,0,1,.62,4.15l-1.44,0C269.55,39.36,267.2,39.47,264.84,39.48Zm-1.07-3h5.72a2.59,2.59,0,0,0-3-1.93A2.79,2.79,0,0,0,263.77,36.45Z"/><path class="cls-1" d="M293.94,51.68a29,29,0,0,1-3.48,1.74c-.86-1.33-1.73-2.72-2.67-4a21.84,21.84,0,0,0-2.37-2.53c-1.3-1.18-4.69-.82-4.69-.82l-.36,7.18-4.25,0,.46-21.85a28,28,0,0,1,5.4-.54,11.65,11.65,0,0,1,5.51,1.66c3.21,2.06,5,7.22,1.49,10.57a5,5,0,0,1-.9.72A36.62,36.62,0,0,1,293.94,51.68Zm-13.34-9.5s3.92.23,5.32-1a3.36,3.36,0,0,0,.2-4.67c-1.64-2.06-5.39-1.71-5.39-1.71Z"/><path class="cls-2" d="M58.71,44.55c-.05-.36-.09-.71-.15-1.07-.16-1.1-.33-2.21-.49-3.32-.06-.4-.12-.79-.17-1.19-.12-.86-.25-1.75-.4-2.62-.2-1.07-.45-2.14-.69-3.17l-.08-.37c-.16-.66-.34-1.35-.55-2-.08-.25-.17-.49-.27-.74a6.57,6.57,0,0,1-.3-.92c-.2-.8-.37-1.6-.54-2.41l-.2-1a1.75,1.75,0,0,0-.8-1.19,2,2,0,0,0-1.55-.12,1.23,1.23,0,0,0-.63.6c-.14.26-.26.53-.38.8a10.91,10.91,0,0,1-.5,1c-.37.67-.77,1.32-1.17,2L49.13,30c-.59,1-1.18,2-1.76,3L46.29,35c-.73,1.32-1.49,2.69-2.29,4a13.46,13.46,0,0,1-1.36,1.74c-.23.26-.46.52-.68.79l-.28.33-.13-.26q-.37-.78-.72-1.53c-.12-.25-.23-.51-.34-.77-.2-.44-.4-.9-.63-1.34s-.39-.68-.59-1-.44-.71-.62-1.07c-.53-1.06-1-2.13-1.48-3.24l-.23-.52a10.84,10.84,0,0,1-.75-2,24.46,24.46,0,0,0-1.63-4.79,1.58,1.58,0,0,0-1.13-.71,1.22,1.22,0,0,0-1,.55,7.35,7.35,0,0,0-.72,1.4c-.2.53-.39,1.07-.58,1.6-1.38,3.9-3.27,7.59-4.54,11.56a70.94,70.94,0,0,0-2,7.87c-.47,2.41-1.23,4.94,0,7.21a10.17,10.17,0,0,0,3.29,3.73A30.26,30.26,0,0,0,41.64,63c3,.27,5.14-.54,7.86-1.49l.78-.24a10.62,10.62,0,0,0,1.87-.72c1.11-.6,2.19-1.29,3.23-2l.93-.6c2.14-1.35,2.14-3.45,2.4-5.75A32.24,32.24,0,0,0,58.71,44.55Z"/><g id="J9NXtc.tif"><path class="cls-1" d="M37.71,46.38a5.14,5.14,0,0,0-1.14-.7,3.88,3.88,0,0,0-1.59,0,6.32,6.32,0,0,0-2.49.63l-.14.09a3.85,3.85,0,0,0-1.44,2.64,11.73,11.73,0,0,0,0,2.9A4.13,4.13,0,0,0,31.24,53l.13.32a3.12,3.12,0,0,0,.83,1.25,3.76,3.76,0,0,0,2.38,1.07,1.89,1.89,0,0,0,1.3-.23c.56-.41,1.18-.72,1.74-1.12a4.47,4.47,0,0,0,1.62-2.62A5.6,5.6,0,0,0,39,47.8,3.7,3.7,0,0,0,37.71,46.38Z"/><path class="cls-3" d="M36.77,50.14a1.72,1.72,0,0,0,0-.24A1.13,1.13,0,0,0,36.1,49a1.06,1.06,0,0,0-1.05.2,3.16,3.16,0,0,0-.89,1,8.39,8.39,0,0,0-.67,1.44c-.07.21-.15.71.13.94a1.48,1.48,0,0,0,.87.33h.1A2,2,0,0,0,36,52a3.31,3.31,0,0,0,.82-1.71v-.19Z"/></g><g id="J9NXtc.tif-2" data-name="J9NXtc.tif"><path class="cls-1" d="M51.16,46.38l-.38-.26a2.59,2.59,0,0,0-2-.46c-.83.1-1.66.25-2.48.43a1.12,1.12,0,0,0-.4.14h0a1.47,1.47,0,0,0-.3.31,5.43,5.43,0,0,0-1.19,2.31,11.17,11.17,0,0,0,0,3.11A4.13,4.13,0,0,0,44.69,53l.13.32a3.34,3.34,0,0,0,.83,1.25A3.79,3.79,0,0,0,48,55.66a1.92,1.92,0,0,0,1.31-.23,17,17,0,0,1,1.52-1l.2-.11a3.06,3.06,0,0,0,1.16-1.5,13.59,13.59,0,0,0,.53-1.56l.21-.66a5.41,5.41,0,0,0-.08-1.26A3.71,3.71,0,0,0,51.16,46.38Z"/><path class="cls-3" d="M50.22,50.14c0-.09,0-.16,0-.24a1.14,1.14,0,0,0-.64-.94,1.06,1.06,0,0,0-1,.2,3.29,3.29,0,0,0-.89,1A8.31,8.31,0,0,0,47,51.61c-.08.21-.15.71.13.94a1.45,1.45,0,0,0,.86.33H48A2,2,0,0,0,49.42,52a3.39,3.39,0,0,0,.82-1.71v0Z"/></g><path class="cls-2" d="M22,47.63q.48-2.46,1.14-4.87a11.49,11.49,0,0,1-.82-.9,7.8,7.8,0,0,1-1-1.87c-.27-.61-.46-1.26-.69-1.89a9.06,9.06,0,0,1-.34-1c-.09-.45-.17-.9-.25-1.35l0,0c-.29.13-.6.21-.9.31a3.2,3.2,0,0,1-.69.19,6.56,6.56,0,0,0-1.07.22,4.45,4.45,0,0,1-1.09.19,6.8,6.8,0,0,1-1.69-.44c-.39-.09-.45-.86-.14-1.06a1.79,1.79,0,0,1,.39-.13c.5-.12.94-.41,1.44-.56l.13,0c.38-.1.78-.14,1.16-.24s.9-.26,1.37-.36l.76-.17c-.13-.66-.27-1.33-.35-2-.28-2.15-.55-4.31-.76-6.46v-.07a2.06,2.06,0,0,1-.43,0,1.22,1.22,0,0,1-.26-.06,4.29,4.29,0,0,0-1.12-.18c-.4,0-.78-.13-1.18-.2l-1.22-.22c-.41-.08-.52-.45-.64-.77s0-.57.31-.78a2,2,0,0,1,1.24-.39,7.57,7.57,0,0,1,1.26,0,12,12,0,0,1,1.17.33c.23.05.47.07.7.1-.08-1.2-.15-2.39-.25-3.59-.15-1.77-.28-3.55-.55-5.3-.21-1.33-.63-2.62-.95-3.94a7.43,7.43,0,0,0-2-3.43,7.81,7.81,0,0,0-2.51-1.56A4.76,4.76,0,0,0,10.2,5a16.7,16.7,0,0,0-2.55.26,2.27,2.27,0,0,0-1,.62,7.77,7.77,0,0,0-1,1.13A3.66,3.66,0,0,0,5,10a4.43,4.43,0,0,0,2.55,3,5.52,5.52,0,0,1,3,5.21,33,33,0,0,0,.12,5.16,40.39,40.39,0,0,1,.45,4.08c.08,2.23,0,4.47,0,6.7H11c.09.85.19,1.71.28,2.57A19.8,19.8,0,0,0,13.08,43a41.92,41.92,0,0,0,2.4,4.29A10.68,10.68,0,0,0,17,49.19a16.06,16.06,0,0,0,4,3.08c.11.07.24.12.36.18A19,19,0,0,1,22,47.63Z"/></svg>